<?xml version="1.0" encoding="utf-8"?>
<!-- Generator: Adobe Illustrator 27.0.0, SVG Export Plug-In . SVG Version: 6.00 Build 0)  -->
<svg version="1.1" id="Layer_1" xmlns="http://www.w3.org/2000/svg" xmlns:xlink="http://www.w3.org/1999/xlink" x="0px" y="0px"
	 viewBox="0 0 32 32" style="enable-background:new 0 0 32 32;" xml:space="preserve">
<style type="text/css">
	.st0{fill-rule:evenodd;clip-rule:evenodd;fill:#C1272D;}
	.st1{opacity:0.4;fill:#CCCCCC;enable-background:new    ;}
	.st2{opacity:0.7;fill:#808080;enable-background:new    ;}
</style>
<path class="st0" d="M20.44,10.06h-8.87c-4.5,0-6.75,0-8.01,1.32s-0.97,3.35-0.37,7.41l0.56,3.86c0.47,3.19,0.7,4.78,1.9,5.74
	c1.2,0.95,2.96,0.95,6.49,0.95h7.75c3.53,0,5.29,0,6.49-0.95c1.2-0.95,1.43-2.55,1.9-5.74l0.56-3.86c0.6-4.07,0.89-6.1-0.37-7.41
	S24.94,10.06,20.44,10.06 M19.44,21.06c0.75-0.46,0.75-1.66,0-2.12l-4.49-2.79c-0.72-0.45-1.61,0.13-1.61,1.06v5.57
	c0,0.92,0.89,1.51,1.61,1.06L19.44,21.06z"/>
<path class="st1" d="M11.35,2.67h9.31c0.31,0,0.55,0,0.75,0.02c1.48,0.15,2.69,1.03,3.2,2.23H7.39c0.51-1.2,1.72-2.08,3.2-2.23
	C10.8,2.67,11.04,2.67,11.35,2.67"/>
<path class="st2" d="M8.41,6.3c-1.85,0-3.37,1.12-3.88,2.6L4.5,8.99c0.53-0.16,1.08-0.27,1.64-0.34c1.44-0.18,3.26-0.18,5.38-0.18
	h9.19c2.11,0,3.93,0,5.38,0.18c0.56,0.07,1.1,0.18,1.64,0.34L27.7,8.9c-0.51-1.49-2.03-2.6-3.88-2.6C23.82,6.3,8.41,6.3,8.41,6.3z"
	/>
</svg>
